<?xml version="1.0" standalone="no"?>
<!DOCTYPE svg PUBLIC "-//W3C//DTD SVG 20010904//EN"
 "http://www.w3.org/TR/2001/REC-SVG-20010904/DTD/svg10.dtd">
<svg version="1.0" xmlns="http://www.w3.org/2000/svg"
 width="95.000000pt" height="95.000000pt" viewBox="0 0 95.000000 95.000000"
 preserveAspectRatio="xMidYMid meet">
<metadata>
Created by potrace 1.11, written by Peter Selinger 2001-2013
</metadata>
<g transform="translate(0.000000,95.000000) scale(0.100000,-0.100000)"
fill="#000000" stroke="none">
<path d="M211 937 c-16 -16 -14 -42 4 -57 9 -8 15 -30 15 -57 0 -40 -6 -51
-49 -99 -27 -29 -59 -75 -72 -101 -57 -114 -8 -418 94 -590 l19 -33 250 2 251
3 22 45 c73 144 108 278 108 420 0 126 -15 167 -92 252 -46 50 -51 60 -51 102
0 25 4 46 9 46 19 0 39 30 34 49 -3 11 -16 22 -32 25 -53 10 -499 4 -510 -7z"/>
</g>
</svg>
